<?xml version="1.0" encoding="iso-8859-1"?>
<!-- Uploaded to: SVG Repo, www.svgrepo.com, Generator: SVG Repo Mixer Tools -->
<svg height="800px" width="800px" version="1.1" id="Layer_1" xmlns="http://www.w3.org/2000/svg" xmlns:xlink="http://www.w3.org/1999/xlink" 
	 viewBox="0 0 512 512" xml:space="preserve">
<g transform="translate(1 -1)">
	<g>
		<path style="fill:#FFDD09;" d="M467.61,276.276c-14.753-9.546-28.637-18.224-45.993-21.695
			c-12.149-2.603-21.695-5.207-27.769-12.149c-17.356-19.959-4.339-50.332,13.017-70.292
			c66.82-73.763,48.597-111.078,48.597-111.078c-6.075-17.356-22.563-34.712-22.563-34.712c-4.339-4.339-13.885-6.942-23.431-7.81
			c-6.075-0.868-13.017,0-19.092,0.868c6.942,1.736,13.885,3.471,16.488,6.942c0,0,17.356,16.488,17.356,34.712
			c0,0,6.942,37.315-59.01,110.21c-18.224,19.959-19.959,51.2-2.603,71.159c6.075,7.81,23.431,30.373,35.58,35.58
			c16.488,6.942,38.183,19.092,52.068,26.034c23.431,11.281,34.712,9.546,34.712,34.712v52.068c0,0,4.339,45.125-17.356,86.78
			c43.39-43.39,43.39-86.78,43.39-86.78v-52.068C511,313.591,489.305,290.161,467.61,276.276"/>
		<path style="fill:#FFDD09;" d="M294.051,208.588h-86.78c-14.753,0-26.034-11.281-26.034-26.034s11.281-26.034,26.034-26.034h86.78
			c14.753,0,26.034,11.281,26.034,26.034S308.803,208.588,294.051,208.588 M432.898,312.724
			c-13.885-6.942-35.58-19.092-52.068-26.034c-12.149-5.207-29.505-27.77-35.58-35.58c-17.356-19.959-15.62-51.2,2.603-71.159
			c65.953-72.895,59.01-110.21,59.01-110.21c0-18.224-17.356-34.712-17.356-34.712c-4.339-4.339-13.885-6.942-23.431-7.81
			c-15.62-1.736-5.207,2.603-16.488,12.149c-46.861,36.447-98.929,39.051-98.929,39.051s-52.068-2.603-98.061-39.051
			c-12.149-9.546-27.769-13.885-42.522-12.149c-10.414,0.868-19.959,3.471-24.298,7.81c0,0-17.356,16.488-17.356,34.712
			c0,0-6.942,37.315,59.01,110.21c18.224,19.959,19.959,51.2,2.603,71.159c-6.075,7.81-15.62,13.885-27.769,16.488
			c-17.356,3.471-33.844,9.546-48.597,19.092c-21.695,14.753-45.993,35.58-45.993,60.746v52.068c0,0,0,43.39,43.39,86.78V373.469
			c0,0-4.339-26.034,34.712-26.034c0,0,11.281-0.868,22.563,2.603c13.885,4.339,21.695,19.092,17.356,32.976
			c-6.942,19.959-17.356,67.688,12.149,103.268c0,0,17.356-121.492,60.746-121.492c0,0,26.034-2.603,26.034,26.034
			c0,0-18.224,95.458,26.034,95.458s26.034-95.458,26.034-95.458c0-28.637,26.034-26.034,26.034-26.034
			c43.39,0,60.746,121.492,60.746,121.492c28.637-34.712,19.092-81.573,13.017-101.532c-5.207-15.62-11.281-31.241,4.339-35.58
			c10.414-2.603,19.959-1.736,19.959-1.736c39.051,0,49.464,26.034,49.464,26.034v112.814c21.695-41.654,17.356-86.78,17.356-86.78
			v-52.068C467.61,322.269,456.329,324.005,432.898,312.724"/>
	</g>
	<path style="fill:#FD9808;" d="M444.18,287.558c-14.753-9.546-31.241-15.62-48.597-19.092c-12.149-2.603-21.695-8.678-27.77-16.488
		c-17.356-19.959-15.62-51.2,2.603-71.159c66.82-73.763,59.01-110.21,59.01-110.21c0-18.224-17.356-34.712-17.356-34.712
		c-5.207-5.207-14.753-7.81-24.298-8.678c-6.075-0.868-13.017,0-19.092,0.868c6.942,1.736,13.885,3.471,16.488,6.942
		c0,0,17.356,16.488,17.356,34.712c0,0,6.942,37.315-59.01,110.21c-18.224,19.959-19.959,51.2-2.603,71.159
		c6.075,7.81,23.431,30.373,35.58,35.58c16.488,6.942,38.183,19.091,52.068,26.034c23.431,11.281,34.712,9.546,34.712,34.712v52.068
		c0,0,4.339,45.125-17.356,86.78c43.39-43.39,43.39-86.78,43.39-86.78v-52.068C489.305,322.269,465.875,301.442,444.18,287.558"/>
	<path style="fill:#FFFFFF;" d="M53.671,286.69c14.753-9.546,31.241-15.62,48.597-19.092c12.149-2.603,21.695-8.678,27.769-16.488
		c17.356-19.959,15.62-51.2-2.603-71.159c-65.953-73.763-59.01-110.21-59.01-110.21c0-18.224,17.356-34.712,17.356-34.712
		c4.339-4.339,13.885-6.942,23.431-7.81c6.075-0.868,13.017,0,19.092,0.868c-6.942,1.736-13.885,3.471-16.488,6.942
		c0,0-17.356,16.488-17.356,34.712c0,0-6.942,37.315,59.01,110.21c18.224,19.959,19.959,51.2,2.603,71.159
		c-6.075,7.81-23.43,30.373-35.58,35.58c-16.488,6.942-38.183,19.091-52.068,26.034c-23.431,11.281-34.712,9.546-34.712,34.712
		v52.068c0,0-4.339,45.125,17.356,86.78c-43.39-43.39-43.39-86.78-43.39-86.78v-52.068C7.678,322.269,31.976,300.575,53.671,286.69"
		/>
	<path d="M450.254,494.961c-0.868,0-2.603,0-3.471-0.868c-3.471-1.736-5.207-4.339-5.207-7.81V373.469c0-0.868,0-0.868,0-1.736
		c0,0,0.868-5.207-2.603-8.678c-4.339-4.339-12.149-6.942-23.431-6.942c-0.868,0-8.678-0.868-17.356,1.736
		c-5.207,0.868-9.546,4.339-12.149,8.678c-2.603,4.339-3.471,10.414-1.736,15.62c6.075,19.959,18.224,71.159-13.885,110.21
		c-2.603,2.603-6.075,3.471-8.678,2.603c-3.471-0.868-6.075-3.471-6.075-6.942c-5.207-37.315-25.166-113.681-52.068-113.681h-0.868
		l0,0c0,0-6.942-0.868-12.149,3.471c-2.603,2.603-4.339,6.942-4.339,13.017c1.736,10.414,11.281,67.688-9.546,92.854
		c-6.075,7.81-15.62,12.149-25.166,12.149s-19.092-4.339-25.166-12.149c-20.827-25.166-11.281-83.309-9.546-92.854
		c0-6.075-1.736-10.414-4.339-13.017c-4.339-4.339-12.149-3.471-12.149-3.471c-27.769,0-47.729,77.234-52.936,113.681
		c-0.868,3.471-2.603,6.075-6.075,6.942c-3.471,0.868-6.942,0-8.678-2.603c-32.976-39.051-20.827-91.119-13.885-111.078
		c1.736-4.339,0.868-9.546-0.868-13.885c-2.603-4.339-6.075-6.942-10.414-8.678c-9.546-2.603-19.959-1.736-19.959-1.736
		c-12.149,0-19.959,2.603-23.431,6.942c-3.471,4.339-2.603,8.678-2.603,9.546v0.868v112.814c0,3.471-1.736,6.942-5.207,7.81
		c-5.207,0.868-8.678,0-11.281-2.603C-0.132,447.232-1,401.239-1,399.503v-52.068c0-23.431,17.356-46.861,49.464-67.688
		c13.885-9.546,31.241-15.62,52.068-20.827c9.546-1.736,17.356-6.942,23.431-13.885c13.885-16.488,13.017-42.522-2.603-59.878
		C57.142,115.734,58.878,76.683,59.746,68.873c0-20.827,19.092-39.051,19.959-39.919c5.207-5.207,14.753-8.678,28.637-10.414
		c17.356-1.736,35.58,3.471,49.464,13.885c40.786,32.976,87.647,37.315,92.854,37.315c5.207,0,52.068-4.339,92.854-37.315
		c13.885-11.281,32.108-15.62,49.464-13.885c13.885,1.736,23.431,5.207,28.637,10.414c0.868,0.868,19.959,19.092,19.959,39.919
		c0.868,7.81,2.603,45.993-61.614,117.153c-15.62,17.356-16.488,43.39-2.603,59.878c6.075,6.942,13.885,11.281,23.431,13.885
		c20.827,4.339,37.315,11.281,52.068,20.827l0,0c32.108,20.827,49.464,44.258,49.464,67.688v52.068
		c0,1.736-0.868,47.729-45.993,92.854C454.593,494.093,452.858,494.961,450.254,494.961z M200.329,356.114
		c4.339,0,14.753,0.868,22.563,7.81c6.942,6.075,10.414,14.753,10.414,26.902c0,0.868,0,0.868,0,1.736
		c-3.471,16.488-8.678,63.349,5.207,79.837c3.471,3.471,6.942,5.207,12.149,5.207c5.207,0,8.678-1.736,12.149-5.207
		c13.885-16.488,8.678-63.349,5.207-79.837c0-0.868,0-0.868,0-1.736c0-11.281,3.471-20.827,10.414-26.902
		c9.546-8.678,21.695-7.81,25.166-7.81c38.183,0.868,57.275,68.556,65.085,105.871c12.149-28.637,4.339-60.746,0-75.498
		c-3.471-9.546-1.736-19.959,3.471-29.505c5.207-8.678,13.017-14.753,22.563-17.356c11.281-2.603,21.695-1.736,22.563-1.736l0,0
		c16.488,0,28.637,4.339,36.447,13.017c7.81,8.678,6.942,19.092,6.942,21.695v89.383c25.166-33.844,26.034-63.349,26.034-63.349
		v-52.068c0-21.695-22.563-40.786-41.654-52.936c-12.149-7.81-27.77-13.885-45.993-18.224c-13.017-2.603-24.298-9.546-32.976-19.092
		c-19.959-23.431-19.092-59.01,2.603-82.441c59.878-67.688,55.539-102.4,55.539-102.4c0-0.868,0-0.868,0-1.736
		c0-13.885-14.753-28.637-14.753-28.637c-0.868-0.868-4.339-3.471-19.092-5.207c-13.017-1.736-26.034,2.603-36.447,10.414
		C306.2,83.625,253.264,87.097,250.661,87.097h-0.868c-2.603,0-55.539-3.471-103.268-40.786
		c-10.414-7.81-23.431-12.149-36.447-10.414c-13.885,1.736-18.224,4.339-18.224,5.207c-4.339,4.339-14.753,17.356-14.753,28.637
		c0,0.868,0,0.868,0,1.736c0,0-4.339,34.712,57.275,103.268c21.695,24.298,22.563,59.01,2.603,82.441
		c-8.678,9.546-19.092,16.488-32.976,19.092C84.912,280.615,70.159,286.69,58.01,294.5c-19.092,12.149-41.654,32.108-41.654,52.936
		v52.068c0,0,0.868,30.373,26.034,63.349v-88.515c0-3.471-0.868-13.017,6.942-21.695c7.81-8.678,19.959-13.017,36.447-13.017
		c0,0,12.149-0.868,25.166,2.603c8.678,2.603,16.488,8.678,20.827,16.488c4.339,8.678,5.207,18.224,2.603,26.902
		c-4.339,14.753-13.017,46.861-0.868,76.366c7.81-37.315,26.902-105.871,65.085-105.871
		C198.593,356.114,199.461,356.114,200.329,356.114z M294.051,217.266h-86.78c-19.092,0-34.712-15.62-34.712-34.712
		s15.62-34.712,34.712-34.712h86.78c19.092,0,34.712,15.62,34.712,34.712S313.142,217.266,294.051,217.266z M207.271,165.198
		c-9.546,0-17.356,7.81-17.356,17.356s7.81,17.356,17.356,17.356h86.78c9.546,0,17.356-7.81,17.356-17.356
		s-7.81-17.356-17.356-17.356H207.271z"/>
</g>
</svg>